<svg xmlns="http://www.w3.org/2000/svg" viewBox="0 0 253.06 291.85"><g id="Camada_2" data-name="Camada 2"><g id="Layer_1" data-name="Layer 1"><path d="M199.14,184.51a4.39,4.39,0,0,0-1.26-.23c.07.17.13.36.21.53C198.44,184.7,198.79,184.61,199.14,184.51Z" style="fill:none"/><path d="M200,184.27l-.12-.09v.12Z" style="fill:none"/><path d="M201.05,170.36l-.16,0a6.34,6.34,0,0,0-2.49,1.41,1.66,1.66,0,0,0,1.46-.23l1.28,1.11c-2.39-2.6.17-.39-.6-1.65l1.1.5A2.07,2.07,0,0,0,201.05,170.36Z" style="fill:none"/><path d="M197.9,204.31l1.73-.61a3.33,3.33,0,0,0-.24-1.57,5.68,5.68,0,0,0,.81,0c-.15-.33-.28-.68-.41-1l-.41,0c-.27.1-.53.21-.8.33a1.24,1.24,0,0,0,.37.56h0a.41.41,0,0,1,.43.17A.8.8,0,0,1,199,202a1,1,0,0,0-.31.11l-.09-.66-2.38,1C196.74,203,197.32,203.65,197.9,204.31Zm.73-2.24.07.52-.15-.49Z" style="fill:none"/><path d="M208.49,178.8l-.11,0,.22.14A1.63,1.63,0,0,0,208.49,178.8Z" style="fill:none"/><path d="M200.46,202.75a5.92,5.92,0,0,0-.12.72,3,3,0,0,1,.36-.12Z" style="fill:none"/><path d="M206.41,159.42l-.68-.67-3,.95C204.49,160.7,205.13,159.33,206.41,159.42Z" style="fill:none"/><path d="M217.14,182.86l.73-.43c-.26.11-.54.21-.79.34A.7.7,0,0,1,217.14,182.86Z" style="fill:none"/><path d="M201,184l17.28-4.82-1.3-.87,2.51.53c3.34-.92,6.7-1.86,10.05-2.8.12.48.26.94.38,1.41a27.63,27.63,0,0,1-6.58,3,2.24,2.24,0,0,1,.44.23l-.48-.21c-1.78.6-3.6,1.21-5.4,2l0,0a1.28,1.28,0,0,1-.71.45,1.85,1.85,0,0,0,.38.53l.09-.12a1.4,1.4,0,0,1,1.77.47c1-.15,2-.47,1.93,1,0,0,0,0,0,.05a.76.76,0,0,1,.18-.06l-.39-1.34,1.51-.45c-1.21.37-.86,1-.81,1.69,1-.31,2-.64,2.94-1l1.25-2.08A1.64,1.64,0,0,0,227,183c3.13-1,6.29-2,9.43-3.08a2.65,2.65,0,0,0,1.24-2c0-.22.05-.42.06-.63-1.19-.58-2,.13-1.77-1.88a8.78,8.78,0,0,1,2,.69A5.55,5.55,0,0,1,242.1,172a4.33,4.33,0,0,0-1.61.23c.6-.33.67-1,1.33-1.06a.71.71,0,0,0-.09-.07l-.39,0,.14-.32c-.36-.46-.7-1-1.27-.48-.17.39.18.62.19,1.12l-.51-.34c-.35-1.72,1-2.48,2.37-3.54l-2.09-.44a8.74,8.74,0,0,1-4.28,2.81c-3.17,1.05-6.35,2.07-9.52,3.1a.62.62,0,0,0,.25.9c-.16-.11-.58.35-.84-.08a.93.93,0,0,1,.07-.65l-15,4.87.16.32a.37.37,0,0,1-.37-.24l-1.29.41c.19.5.57.94.4,1a.82.82,0,0,1-1.07-.37l-.86.37.28.29a3.8,3.8,0,0,1-1.24.1l-.6.26.23-.31a2.49,2.49,0,0,1-.6-.19l-2.47.8-.82.27c.85,1.37.08,0,.18,1.75-.6-.64-1.37-.92-1.78-.46.18.61.94.38,1.37.91A1.89,1.89,0,0,0,201,184Zm22.85-.76c.4-1,.78-2-.07-2.58l.95.42C223.79,181.63,226,183.92,223.84,183.24Zm2.13-1.63a2.12,2.12,0,0,1,.07-.77l.28.18Zm7.25-2.13c-.21.18-.31.3-.22.07l.22-.07.15-.1,0,.05Zm1.57-8.1,1.91,1.28-.13.3-1.91-1.28Zm-1.45,5.48a2.3,2.3,0,0,1-.25.44,5.81,5.81,0,0,1,.59.62c.33-.42.63-.66,1.28-.23l-1.1.45A13.5,13.5,0,0,1,235,179.7a1.08,1.08,0,0,0-1.64-.32l-.66-1.46-.11.16,0-.34-.36-.78-.76.12C231.64,175.71,233.09,176.43,233.34,176.86Z" style="fill:none"/><path d="M232.67,176.9h0s0,0,0,0Z" style="fill:none"/><path d="M121.66,275.19a2.49,2.49,0,0,0,2-.77Z" style="fill:none"/><path d="M125.63,275.06a5.42,5.42,0,0,0-.49-.46,2.37,2.37,0,0,1-.82.44A4.73,4.73,0,0,1,125.63,275.06Z" style="fill:none"/><path d="M116.42,277.68l1.17-.33-.13-.28C117.07,277.28,116.7,277.49,116.42,277.68Z" style="fill:none"/><path d="M124.28,275.05c-1.22.41-2.89.43-3.09,1-.6,0-.82-.1-.82-.3-.48.2-.93.4-1.34.59a2,2,0,0,1-.52.79l5.38-1.46Z" style="fill:none"/><path d="M26.71,156.3c16.72-3.13,32.76-8.47,48.51-14.82C58.51,144.64,41.69,147.44,26.71,156.3Z" style="fill:none"/><path d="M62.2,169.94c6.49-1.34,13-2.57,19.46-4.06,2.41-.56,4.3-1.95,2.86-5.28l-22.68,7.59Z" style="fill:none"/><path d="M117.92,49c-.81-.55-1.39-2.47-2.58-1.31-.17.43,0,.74.19,1.17C116.33,48.93,117.13,49,117.92,49Z" style="fill:none"/><path d="M127.63,48.05c-.27-.25-.63-.73-.86-.17l.14.28Z" style="fill:none"/><path d="M125.42,47.76a1.1,1.1,0,0,0-.47.66c.56-.05,1.13-.13,1.68-.21C126.47,47.6,126.34,47,125.42,47.76Z" style="fill:none"/><path d="M127.8,273.24a.72.72,0,0,0,.58-.56l-1,.34A2.48,2.48,0,0,1,127.8,273.24Z" style="fill:none"/><path d="M139.53,98.22c11.25-.67,22.51-1.23,32.83-6.54C161.27,93.25,150,93.56,139.53,98.22Z" style="fill:none"/><path d="M132.5,43.81c.11-.3.24-.59.36-.89a4,4,0,0,1-1.28-.85C130.71,43.63,131.84,43.43,132.5,43.81Z" style="fill:none"/><path d="M130.28,47.47c.81-.22,1.32-1.48,1.92-2.94-2-1-3,.47-5.23,1.14l.71,2.36C128.56,47.88,129.43,47.7,130.28,47.47Z" style="fill:none"/><path d="M208.91,161.12a12.91,12.91,0,0,1-2-1.07c.11.51.12,1,.24,1l-4.85-.09c-.09-.31-.18-.67-.27-1.06L198.7,161a4.78,4.78,0,0,0,.8.87c-.89,1-.91-.11-1.25-.72L194,162.51h0l-.51,1.23c-1.28,1.37-2,.74-2.51-.28-2.52.81-5.07,1.6-7.59,2.39l-2.73.86-.72,1.76c-.13-.94-.46-1.37-.87-1.26l-.08,0a1.08,1.08,0,0,0-.42.33l-.24-.13-13,4.11A391,391,0,0,0,208.91,161.12Z" style="fill:none"/><path d="M215.13,184.08a10.1,10.1,0,0,0,1.3.86,11.66,11.66,0,0,0-.89-1.11Z" style="fill:none"/><path d="M247.49,171.07c-.32-.32-.11-1.38-1-.71a.69.69,0,0,0-.27.87C246.66,171.19,247.07,171.14,247.49,171.07Z" style="fill:none"/><path d="M242,192.58a2,2,0,0,0-1-.44c.27.46-.09.72-.54,1,.39-.1.77-.22,1.15-.34A.75.75,0,0,1,242,192.58Z" style="fill:none"/><path d="M216.75,182.91a1.63,1.63,0,0,0,.31,0l0-.1Z" style="fill:none"/><path d="M187.33,263.49l-.27.09-.92.4,1.37.17Z" style="fill:none"/><path d="M232.45,206.89l-1.28-.16.34-.77,1.58.75,1-.3a3,3,0,0,1-.6-.55l1.92.17.17-.05-.06-.23s.18.09.44.12l1.84-.53c-.1-.38-.21-.76-.31-1.14l-10.13,2.08-.09.22c0-.08,0-.13,0-.19l-3.36.68.54,2.21Z" style="fill:none"/><path d="M223.62,220.72c3.8-.78,7.53-1.82,11.25-2.91l12.75-3.69a1.74,1.74,0,0,0,.08-.42c.16-.42.38-.16.66.21l1.49-.45c.22-.14.46-.27.53-.42-.94-.87-.79-2.25-2.64-2,.09.31.35.72.18,1.11-1.1-1-.86-1.08-1-2.37-.67.65-1,0-1.31-.57-.24.09-.46.17-.7.24l-.1,0-1.75.6s0,0,0,0l0,0-1.47.52a4.24,4.24,0,0,1-.55,1l-.25-.68c-.34.11-.67.22-1,.34a3.06,3.06,0,0,0,1.16.45l-.21.28,1.62.84c0,1.27-1.45.52-2.13.9-.14-.92-1.34-1.86-1.58-.93,0,.49.09.8.68,1l-1.26-.13.44,1c.34.72-2.25,1.67-3.67,1.94-.26-.41-2.88.52-4.39,0-.37-2.2,1.86.29,1.41-1.74-.18-.12-.52-.36-.6-.15l.09.3-.63-.59c-.79.29-1.59.56-2.39.84.54.09,1.06-.05,1,.86l-1.19-.8-.65.23a.31.31,0,0,1,0,.09l-.07-.07-1,.35,0,.22-.18-.17-.32.1c.13.73-1.62,0-2,1.34l-.53-.45-.91.32c-1,.34-1.57,1.63-2.33,2.47C221.36,220.08,222.6,220.94,223.62,220.72Zm20-8.51c.49-.07-.44-1.4.71.19l-.71-.19a.74.74,0,0,1-.47-.12Zm-2.63-.53.08-.11,0,.13Zm-.72,2a.89.89,0,0,1-.37.88C239.87,214.07,240,213.82,240.25,213.69ZM228,216.21c.89.53,2.61-.08,2.63,1-.77-.26-.75,1.22-1,1.3l-1.53-1c.32-.39.18-.81-.1-1.23a1,1,0,0,1-.48-.6A6.3,6.3,0,0,1,228,216.21Z" style="fill:none"/><path d="M232.27,213.85l-1.19.42C231.6,214.37,232.07,214.29,232.27,213.85Z" style="fill:none"/><path d="M130.71,279.35l-.07-.05-.85.24A1.38,1.38,0,0,0,130.71,279.35Z" style="fill:none"/><path d="M138.39,284.6l-.06-.18a8.61,8.61,0,0,0-2.65.33C136.57,284.66,137.51,285.68,138.39,284.6Z" style="fill:none"/><path d="M98.07,283.69l-1.36-.48-.48-.18a1.25,1.25,0,0,0-.08.78c.18.12.34.25.5.38Z" style="fill:none"/><path d="M136.75,281.71a1.79,1.79,0,0,1-.27.72C136.74,282.2,137.11,281.86,136.75,281.71Z" style="fill:none"/><path d="M68.54,209.57c-1.42.23-2.75,1.39-4,2.36-.31.27,0,1.92.08,1.92a17.1,17.1,0,0,0,4.52,0,14.31,14.31,0,0,0,3.41-1.61c0-.52,0-1,.07-1.54C71.28,210.28,69.81,209.37,68.54,209.57Z" style="fill:none"/><path d="M139.46,284.5a6.74,6.74,0,0,0-1-.08A1.48,1.48,0,0,0,139.46,284.5Z" style="fill:none"/><path d="M246.07,247.36l-.62.18a3.08,3.08,0,0,0,1.32.49Z" style="fill:none"/><path d="M214.35,184.19a19.47,19.47,0,0,0-2.17,1.57,1.79,1.79,0,0,0,1-.3l.79.68.12,0c-1.75-2,.48-.06-.25-1.25l1.1.48A2.2,2.2,0,0,0,214.35,184.19Z" style="fill:none"/><path d="M170.85,223.41c.2.64.39,1.27.6,1.9q4.62-1.53,9.28-3c.25-.35.54-.65.91-.5l-.73.44,14.56-4.79c-.15-.46-.29-.92-.43-1.37Z" style="fill:none"/><path d="M172.24,213.17l.21-.08a4.14,4.14,0,0,0,0-1.11l-.59.24C172,212.54,172.11,212.85,172.24,213.17Z" style="fill:none"/><path d="M214.86,183.89a2.07,2.07,0,0,1,.24.17l0-.27Z" style="fill:none"/><path d="M163.09,188.54l12.62-4.78C171.23,180.68,165,183,163.09,188.54Z" style="fill:none"/><polygon points="215.93 183.58 217.13 184 217.31 183.75 217.06 182.91 215.93 183.58" style="fill:none"/><path d="M174.76,211.27a1,1,0,0,1-.5,0l-1.67.67a5,5,0,0,0,.57.92l.61-.2.08-.36.14.28,6.66-2.3a.76.76,0,0,1,.24-.38l.51.12,13.12-4.52a.93.93,0,0,1-.08-.2l0,0a.73.73,0,0,1-.31-.44l-.74-1.07a.52.52,0,0,0,.46-.24.51.51,0,0,1,0-.17l-1.48.61a.71.71,0,0,0,0,.21l-.2-.12-2.14.86a7.26,7.26,0,0,1,1,.47,8.92,8.92,0,0,0-1.42-.3l-15,6.07Zm16.9-5.58-.71-.33A2.7,2.7,0,0,1,191.66,205.69Z" style="fill:none"/><path d="M228.74,14.46c-.63-.17-1,.38-1.12,1.14A9.3,9.3,0,0,0,228.74,14.46Z" style="fill:none"/><path d="M230.75,15.87c-2.4,2.41-4.19,4.23-6,6C228.53,22,232.31,22.18,230.75,15.87Z" style="fill:none"/><path d="M223.76,17.7A9.8,9.8,0,0,0,227.15,16c0-.27,0-.5,0-.69-.69-.86-2.59-1.34-2.27.45l.95.24A4.72,4.72,0,0,1,223.76,17.7Z" style="fill:none"/><path d="M244.53,171.48c.29,0,.57-.09.86-.12C245.14,170.93,244.93,170.7,244.53,171.48Z" style="fill:none"/><path d="M187.65,177.26c-.32-.35-.65-.69-1-1-2.89.77-6.39.82-6.06,5.38l1.34,1.33Z" style="fill:none"/><path d="M195.34,205.19a1.12,1.12,0,0,0-.22-.31c-.3.34-.52.43-.69.36v0l.13.17C194.82,205.37,195.08,205.29,195.34,205.19Z" style="fill:none"/><path d="M148.31,274.3l-.08,0a.7.7,0,0,1-.15.63h0l.84-.24A1.55,1.55,0,0,1,148.31,274.3Z" style="fill:none"/><path d="M219.35,262.08l-.12,0h0l.12.23C219.32,262.18,219.34,262.13,219.35,262.08Z" style="fill:none"/><path d="M210.76,171.18c.08-1.4,1,.11,1.65-.29l-1.86-1.61C210.75,170.59,209.1,170.29,210.76,171.18Z" style="fill:#efad13"/><polygon points="216.05 197.05 214.69 196.66 215.18 197.3 216.05 197.05" style="fill:#efad13"/><path d="M243.83,158c.86-1.43,1.18,1.42,1.65-.87l-1.08-.47.2.14-1.46.42Z" style="fill:#efad13"/><path d="M232.72,194.91a1,1,0,0,1-.29-.49l.07.56Z" style="fill:#efad13"/><path d="M252.58,179.92a1.7,1.7,0,0,0-.06.57l.26-.42Z" style="fill:#efad13"/><path d="M144.75,275.59h0l-.13,0Z" style="fill:#efad13"/><path d="M96.23,283l.48.18,1-1.2c-.74-1-1.53.74-2.5.4-.38.47.32.92,1,1.4A1.25,1.25,0,0,1,96.23,283Z" style="fill:#efad13"/><line x1="144.27" y1="275.42" x2="144.63" y2="275.55" style="fill:none;stroke:#efad13;stroke-linecap:round;stroke-linejoin:round;stroke-width:0px"/><path d="M232.43,195l.11.34,0-.37Z" style="fill:#efad13"/><path d="M253.06,247.1v0l-.16,0Z" style="fill:#efad13"/><path d="M253.06,253.4v-1a2.4,2.4,0,0,0-.28,0Z" style="fill:#efad13"/><path d="M5.11,153.91c2.14-.09,4.21-1.3,6.31-2.07,3.43-1.27,6.83-2.55,10.25-3.85l.68,1.31c-.41.56-.69,1.35-1.25,1.64-3.73,1.91-6.56,3.31-4.2,9,1.88,4.47.91,5.11,5.91,4.27,1.55-.25,4.48-.07,4.66.55,1.44,4.84,4.46,4.36,8.05,3.09a8.23,8.23,0,0,1,2.62,0,4.89,4.89,0,0,1-2.35,1.72c-2.09.81-4.42,1.38-3.91,4.51.53,3.32,3,2.8,5.19,2.6,10.68-1,21.35-2.15,32-3.21,1.56-.16,3.12-.17,4.69-.24.2.52.43,1,.65,1.58-1.83,1-3.56,2.57-5.52,3-6.84,1.53-13.78,2.54-20.64,4-4,.86-4.77,2.79-3.24,6.55a15.34,15.34,0,0,1,1,2.94c.49,2.66,2,3.39,4.51,2.89,5.55-1.11,11.14-2.09,16.7-3.1,1.41-.25,2.84-.4,4.26-.6,0,.39.11.77.17,1.14-6.15,1.63-12.4,3-18.41,5-1.55.53-3.44,3.34-3.25,4.86.38,3.18,3,1.62,5,1.2,6.72-1.42,13.45-2.78,19.55-4-4.24,2.38-8.75,5.29-13.58,7.51-6.21,2.87-7.18,5-4,11a20.38,20.38,0,0,1,.89,2.5c-3.9,1.57-7.61,3-11.29,4.56-5.58,2.37-11.15,4.78-16.68,7.3-2.36,1.08-3.93,2.89-1.22,5,1.82,1.45,4.4,3.3,6.33,3,5.66-.91,11,.76,16.47.79,3.8,0,6.42.8,9.38,3.83-3.3,1.33-6.26,2.31-9,3.71-1.29.67-2.13,2.18-3.18,3.3,1.11.8,2.2,1.62,3.34,2.39a11.8,11.8,0,0,0,1.69.75c-.27,2.88-1.15,6.68,3.52,5.65s6.45,1,7.41,4.94c-6.08,4.94-5.95,4.79.23,10,3,2.53,5.85,2.64,9.5,2.1a86.75,86.75,0,0,1,14.16-.49c1.11,0,2.9,1,3.2,1.9,1.28,3.82,3.8,3.49,6.81,2.76,1.91-.47,3.86-.87,5.79-1.27a11.33,11.33,0,0,1-1.72.49l1.3.71c-.38.89-1.92.85-3.07.72l.91.48c-1,.35-2,.71-3,1.05-.35-.31-1.39,0-2.13-.21l1.36.48-1.42.5c-.16-.13-.32-.26-.5-.38a.76.76,0,0,0,.36.43c-5.22,1.83-10.37,3.82-15,7.08a12.8,12.8,0,0,0,7,.09c6.3-1.79,12.6-3.63,18.89-5.45a.42.42,0,0,1,.06.25c-1.94.85.1,1.05-1.52,1.5l2,.21.15-1c1,.35,2-.56,3-1a9.74,9.74,0,0,1-2.74-.26c4.64-1.37,9.29-2.67,14-4a3,3,0,0,0-1.38,1.35c.56.47.34,1.13.66,1.51,1.21-.34,1-1.68,1.27-2.36,2.51,1.14,5.48-1.4,8.72-1.52l-.46-1.51.54-.15c1.37.21,2.69,1,2.43,2a2,2,0,0,1-2.36.49c.38.42.61,1.85,2.05,1.43a2.56,2.56,0,0,1,1.45-1l.26.86a1.58,1.58,0,0,0,1-.3l-.06.07c.48.17,1.14.14.66.74a1.17,1.17,0,0,1-.36,0c.36.27-.38.9-1,1.4a8.61,8.61,0,0,1,2.65-.33l.06.18c-.88,1.08-1.82.06-2.71.15h0s-.08,0-.12,0a.47.47,0,0,0-.17,0s0,0,0,.08-.25.2-.18.32l.08-.08c-.43,1.22,2,.57,2.41.73l1.46-1,.24.86.61-1.09H140c1.7.6-1.49,3,1,2.65a4.82,4.82,0,0,0,.29-.71c.57-.08,1.06-.29,1.36,0l-.82-1.3-.48.84c-.06-.67-1-.46-.88-2.11.74.25,1.55.79,2.35.57l-1.22-.43c1.45-1,1-1.19,3-1.76-.57-.45-1.78-.11-2-.68a2.46,2.46,0,0,1,2.67.17c.15-1.73,1.21-.34-.1-1.82l.39-.07c-1.6,0-1.09-2-3.55-.27l1,.34c0,.77-1.42,1-2.39,1.44l-1.15-.91c-.89-.05.41.66-.55,1.08h-2.18a1.17,1.17,0,0,1,.93-.91l-1.06-.63c.65,0,1.37-.54,1.69-.16l-.24-.86c1-.44,2.51.37,2.74-.31-1.49-2.82-4.26,1.82-6.15-.12,0-.18-.23-.31-.31-.48l1.52-.44c.25.13.43.29.41.47,0-.19,0-.38,0-.58l1.31-.38.06.42c.32-.39,1.86-1.14,2.34-.2l-.16-.57c2.4-.68,1,1.88,2.85,1.5-.65,0-.82-.53-.9-.81l3.07-.71.06-1.25a2.12,2.12,0,0,1-2.15.16l1.51-.42,1-.27a1.36,1.36,0,0,1-.51.44c1.6.45,2.2-.8,3.3-.63v0h0a.7.7,0,0,0,.15-.63l.08,0a1.55,1.55,0,0,0,.63.43l-.84.24a2.44,2.44,0,0,1,1.26.72c-1.77.65.17,1.34-1,2.43.57-.3,1.21.43,2-.56-.78-1.23.87-2.06-.47-2.9a1,1,0,0,0,.36-.89q17.49-4.86,35-9.69l0,.28.41-.18a14,14,0,0,1,3.08,3.47l-.74-1.78a9.21,9.21,0,0,0,3.2-1.68c.37-1.57-2.7.44-3.79-.73l6.86-1.89c.46.32,0,.89-.44,1.46,2,.21.15-1,1.1-1.39l-.54-.1c2.92-.81,5.85-1.6,8.77-2.42l.39.68a1.38,1.38,0,0,1,1.54,0,6.82,6.82,0,0,0-1.06-.95l3.32-.91a2.71,2.71,0,0,1,1.57.45.78.78,0,0,0-.1-.86l9.27-2.53v.5l1.13-.63-.48,0,13.09-3.59c.94.65,1.89,1.15,3.67-.32l2.2,1.54c1.75-2.19,5-.78,5.56-2.64a3.15,3.15,0,0,1,1.94.88l.54.48.1-.19a2.3,2.3,0,0,0,.42.14c1.81-1.12,0-1.78.58-3l.24.24c.8-.35.07-.88-.71-1.1l6.66-1.82v-5.8a27.94,27.94,0,0,0-2.78,1.62l-30.51,8.3c.28-.41.19-.75-1-.94-.66.18,1.05.34.81,1l-1.27.34-1.15-.12.27.36-4.07,1.11c-.41-.41-.68-.86-.12-1l-2.26.47c-.07.49.82.55.5.94h.37q-17.37,4.76-34.77,9.46c-.67-.3-2.23-.47-2.63.68l.51-.1-42.16,11.47a1.86,1.86,0,0,0-1.22.07,2.36,2.36,0,0,0,.23.2l-3.09.83-.71-.22a1.14,1.14,0,0,0,.47-1.45l1.94-.68a3.32,3.32,0,0,0,.4.56,2.66,2.66,0,0,0-.28-.6c23.82-8.17,72.64-22,122.48-35.27V211.93c-.58.35-1.17.54-1.69-.17l.36.72c-3-1.27-1.89-2.25-4.35-3.68a.55.55,0,0,0,.18-.24l4.34-1.48h0l0,0,1.15-.39v-5.5l-9.54,2.48c-.21-.45-.41-.92-.62-1.37,1.43-.9,2.76-2.15,4.31-2.64,2-.62,3.9-1.33,5.85-2v-8.51c-2.93,1-5.85,1.88-8.79,2.79-.68-.33.07-.86.29-1.38-2-1.08-3.26,2.48-5.38.3-1.27.06-1.13.89-.66,1.69l-.49-.17a1.79,1.79,0,0,0,.33,1.33l-1.09.31c-.09-.37,0-.65.42-.72l-1.94-.09a1.67,1.67,0,0,1,1.26.89l-2.8.77h0l-.45.12c-.22,0-.46.05-.69,0a.61.61,0,0,1,.07.14l-.57.17c-.7.17-1.37.36-2.06.54a2.43,2.43,0,0,0,.21-.37l-1.94-.8c.1.34.69,1.35-.09,1.4l.13.18c-4.77,1.19-9.58,2.2-14.47,3,.6-.5-.83-.9-2-.89l.58-.46-.95-.25-.07.75c-.49.06-.83.22-.77.55l-.51-.83c-.34.26-.33.77.09.81l.69.46-.13-.22c.8.44,1.93-1.4,3,.08-2.06.34-4.14.64-6.24.88l-.18-.47a.88.88,0,0,0-.27.52c-.35.05-.68.1-1,.13-.22-.4-.44-.81-.67-1.21a35.17,35.17,0,0,1,5.2-3l.34-.13c.72-.06,1.35.64,1.85,1l-1-1.28c2.95-1.1,5.93-2.17,8.89-3.23a.86.86,0,0,0,.48,1l-.47-1,1.44-.51.43.3a12,12,0,0,0-.21,1.35.83.83,0,0,0-.64,0l.63.11a8,8,0,0,0,0,1l1.15-.62h0l1.47-.82c.1.48.25.84.71.33,1,1.2-1.17.69-.13,1.87,1.68.17,1.76-1,2.59-1.44-.53-.56-1-1.13-1.51-1.67l.21-.12H227c-.43-.49-.85-.95-1.3-1.4.81-.28,1.61-.57,2.41-.87l.1.1.28-.2a1.83,1.83,0,0,0,1.33.06,1.9,1.9,0,0,0,.27.65l-1.15.23c.71-.05,1.59.43,2.25-.22-.67-1.32-.74-.56-1.22-.73a2.69,2.69,0,0,0,.48-.24l-.3-.39,2.26-.81c1.28,1.11,4.48,2.45,6.41,2.08l-1.23-1.23,1.61-2.27c-1,.37-2.37-.18-2.44.69l-.39-.49c0,.14.12.32.16.49a3.88,3.88,0,0,0-.55-.59c1.81-.68,3.61-1.36,5.41-2.06a66.43,66.43,0,0,0,7.94-3.7,12.23,12.23,0,0,0,1.33.58l-.43-1.1c1-.58,1.93-1.21,2.85-1.87v-8.92c-.92.19-1.84.38-2.77.55l-.81-.76.68.77h0c-.51.08-1,.19-1.54.27h-.12c-.28,0-.57.08-.85.12l-.28-.6c.16-.39.42,0,.59.14l-.45-1.53c1.52-.45,2.18-1.48,3.7-.44.32-1.26-1.6-.36-.77-1.76a2.38,2.38,0,0,0,1.13.64,2.25,2.25,0,0,1,0-1.82c-.66,2-2.37-1.11-2.43,1.56-.25-.43-.34-1.23-.94-1.38l-.14,1.37c-.17.39-1.61.65-2.19,1,.06-.5.85-1.14.74-1.54l.38.66c-.09-.76.95-1.69,1.23-2.58a.65.65,0,0,0,.63.06l-.56-.46c0-.48-.31-.93-1.27-1.31-.3.1-.09.25.22.49.12,1-1.23.83.19,1.55,0-.67.31-.55.64-.39a1.08,1.08,0,0,1-.31.78l-2.17-.65,1,1.78c-.06-.12-.22-.21-.57-.27-.74.23-.15,1.37-1.06,1.49l-.44-1c-1.61-.84-.73,2.67-2.24.71l.29.06c-.69-.86-1.8-2.39-1-2.63l-.34.06a7,7,0,0,0,.36-1.83l1.17.66c0-.07.06-.1.11-.08-.11-.21-.22-.48-.39-.84l1.19.81.53-.92.39-.16a1.17,1.17,0,0,0,.2-.53c2.14,0,4.7.35,5.59.25-.66,0-.67-.47-.76-.78.93-.11,1.91-1.9,2.7-.14a1.62,1.62,0,0,0,.71-.84v-3.12c-.42.46-.85.92-1.28,1.37.25.17.54.36.81.58l.34,1.17c-1.94.42-1.89-2.75-4-2l-1.15,1.69c-.94-.4-1.55-1.54-2.38-1.12a3.44,3.44,0,0,1,.87,1.56l-1.11-.5c.78,1.27-1.79-.95.6,1.64l-1.28-1.1c-1.5.94-2.35-.61-3.7-.54l-.3.92c-.68.28-1.38.55-2.07.82l-.14-.1-.07.18q-7.74,3.06-15.56,6.12l-1.14-1,1,1,.05,0-.83.32,0-.1-1.46.2.19.41-8.33,3.28a.87.87,0,0,0-.43-.31l-.06.5-1.79.7c.09-.3,0-.55-.67-.67-.53.15-.49.73-.62,1.18l-.74.3-.39-1c-1.85-1-.83,3.19-2.6.76a9.73,9.73,0,0,0-2.54,2.36l-5.36,2.12a11.79,11.79,0,0,1,.23-4.38l1,.6a.15.15,0,0,1,.12-.09c-.11-.19-.22-.46-.39-.83l1.19.81.92-1.6c2.19,0,4.88.34,5.8.24-.67,0-.68-.46-.77-.77.93-.11,1.92-1.9,2.7-.14,1.84-1.22-.45-2.52,1.56-3.12l-1.52.44.54,1.83c-1.94.43-1.9-2.75-4-2l-1.16,1.68a8.39,8.39,0,0,1-1.42-1c4.66-1.53,9.31-3.09,14-4.63-.54,1.48-3.45,1.3-1.88,2.78l1.28-.64-.27-.19a21.56,21.56,0,0,0,2.5-1.87l-.51-.45q11.91-3.93,23.8-7.88c.47.78,1.39,1,1.47,1.2,0-.81-.6-1-1.08-1.34l12.05-4v-6.4c-1.6.55-3.2,1.09-4.79,1.65a2,2,0,0,0-.66-.47l.26.6-6.39,2.18a2.19,2.19,0,0,0-.53-.25l.51.25c-10.69,3.64-21.42,7.16-32.23,10.35l-1.15-1.14-1.24-.12a2.18,2.18,0,0,0-.68-1.15c8-2.53,16.07-5,24.2-7a143.82,143.82,0,0,0,16.7-5.79.88.88,0,0,0,.5.35,1,1,0,0,0,.21-.61q2.64-1,5.29-2V11.09c-2.47.81-4.94.86-7.42-2.19L240.23,13c1.74,1.51,3,2.64,4.37,3.84-6.13,3.24-6.1,3.22-10.23-2.21a7.06,7.06,0,0,0-.85-.94,2,2,0,0,1,2,.93h0L235.4,13c1.42,2.51.5-1.24,2.13-.93-1.25-1.24-1.14-2.34-.74-2.47l-2.27.46,1.91,1.26c-.71,1.73-4.38-.24-4.1,1.57a3.46,3.46,0,0,0-.68-.19l-1.53-1.27c-1.72.76-6.3-.38-10.1-.18l.47,1.59c-1.07.07-2-.18-2.94.38l.56,1.17-1.74,0c1.27,2,.81-.25,3,.41,0,1.13-.61,2.21-.54,3.46-.69,0-1.4-.05-2.09-.1-2.67-.2-4.23.29-4.62,3.34-.32,2.54-5,4.49-6.37,2.75-2.52-3.12-4.37-3-6.59.2-.45.67-1.74.87-2.68,1.08-4,.95-7.77,2.15-9.2,6.75a2.94,2.94,0,0,1-2.2,1.62,2.86,2.86,0,0,1-2-1.76c-1.06-4.52-3-3.06-5.74-1.4a41.24,41.24,0,0,1-9.67,3.77c-1.71.51-4.18-.49-5.39.42s-1.61,3.42-1.86,4.07c-4.32-.06-8.25-.13-13.31-.22l4.68,4.46c-3.88,1.48-6.95,2.61-9.64-1.14-.57-.78-2.31-1.05-3.48-1l-.68.08c-.1-.69.08-1.19,1.26-1.15-.47-.32-1.3-.09-1.75-.2a4.38,4.38,0,0,1-.49,1.48c-.72.12-1.39.28-2,.42a1.2,1.2,0,0,0,0-.19l-.14-.49-.46.83-1.07.25a.67.67,0,0,0-.08.17,3.58,3.58,0,0,1,.15-1.91c-1.07,2.73-3.71-1.88-3.73,2.28-.42-.67-.6-2-1.54-2.2l-.21,2.22c-.26.62-2.53,1.06-3.45,1.61.11-1.1,2.47-2.64.18-3-1.19.39-.21,2.23-1.66,2.43l-.72-1.66c-2.6-1.34-1.09,4.38-3.6,1.13-2.08,1.7-4.26,2.95-3.75,5.64a4.26,4.26,0,0,0-1.3.16c-6,1.68-10.88,6.45-17.58,6.28a7.77,7.77,0,0,0-2.17.33h-.08v0c-.57.17-1.13.37-1.67.55l-.47.15-1.11-.52-.41,1c-8.61,2.87-8.44,2.52-7.4,9.61a1.18,1.18,0,0,0-.06,1,.36.36,0,0,0,.2,0c.09.51.15,1.07.23,1.67a1.25,1.25,0,0,0,.07.53c0,.11,0,.2,0,.3l-.86.32L82,69c-1.34-.11-3,3.09-3.89.15-.25.62.7.87.86,2.16l-.55.23-.82-.8-2.67-.24c.76.52,1.55,1,2.37,1.51l-.86.34.15.13c-5.28,2-10.58,4-15.93,5.77-5.92,2-9.43,6.51-9.66,12.61,0,1.21-1.72,3.2-2.83,3.35-2.7.35-4.69.44-4.06,4.1.14.79-1.5,2.24-2.61,2.8-2.61,1.31-4.75,2.52-3.49,6.1a3.26,3.26,0,0,1-.88,3c-3.46,2.12-7.16,3.86-10.67,5.92a23.3,23.3,0,0,0-3.5,3.13,18.18,18.18,0,0,1,3.32,2.35,15.94,15.94,0,0,1,3.55,5.13c.21.6-2,2.49-3.4,3.1-4.89,2.16-5.38,3.17-2.84,9.16-5,1-10,1.77-14.83,3.16a19,19,0,0,0-7.65,4.18c-1.1,1-1.4,4.05-.71,5.58C.89,153,3.49,154,5.11,153.91Zm67.48,58.34a14.31,14.31,0,0,1-3.41,1.61,17.1,17.1,0,0,1-4.52,0c-.1,0-.39-1.65-.08-1.92,1.21-1,2.54-2.13,4-2.36,1.27-.2,2.74.71,4.12,1.14C72.63,211.22,72.62,211.73,72.59,212.25Zm66.87,72.25a1.48,1.48,0,0,1-1-.08A6.74,6.74,0,0,1,139.46,284.5Zm-2.71-2.79c.36.15,0,.49-.27.72A1.79,1.79,0,0,0,136.75,281.71Zm109.32-34.35.7.67a3.08,3.08,0,0,1-1.32-.49Zm-59,16.22.27-.09.18.66-1.37-.17ZM130.64,279.3l.07.05a1.38,1.38,0,0,1-.92.19Zm110.41-87.16a2,2,0,0,1,1,.44.75.75,0,0,0-.38.17c-.38.12-.76.24-1.15.34C241,192.86,241.32,192.6,241.05,192.14Zm-13.78,14.17c0,.06,0,.11,0,.19l.09-.22,10.13-2.08c.1.38.21.76.31,1.14l-1.84.53c-.26,0-.43-.08-.44-.12l.06.23-.17.05-1.92-.17a3,3,0,0,0,.6.55l-1,.3-1.58-.75-.34.77,1.28.16-8,2.31-.54-2.21Zm5,7.54c-.2.44-.67.52-1.19.42Zm-9.72,3.39.91-.32.53.45c.39-1.33,2.14-.61,2-1.34l.32-.1.18.17,0-.22,1-.35.07.07a.31.31,0,0,0,0-.09l.65-.23,1.19.8c0-.91-.48-.77-1-.86.8-.28,1.6-.55,2.39-.84l.63.59-.09-.3c.08-.21.42,0,.6.15.45,2-1.78-.46-1.41,1.74,1.51.54,4.13-.39,4.39,0,1.42-.27,4-1.22,3.67-1.94l-.44-1,1.26.13c-.59-.16-.67-.47-.68-1,.24-.93,1.44,0,1.58.93.68-.38,2.08.37,2.13-.9l-1.62-.84.21-.28a3.06,3.06,0,0,1-1.16-.45c.32-.12.65-.23,1-.34l.25.68a4.24,4.24,0,0,0,.55-1l1.47-.52,0,0s0,0,0,0l1.75-.6.1,0c.24-.07.46-.15.7-.24.36.55.64,1.22,1.31.57.1,1.29-.14,1.37,1,2.37.17-.39-.09-.8-.18-1.11,1.85-.24,1.7,1.14,2.64,2-.07.15-.31.28-.53.42l-1.49.45c-.28-.37-.5-.63-.66-.21a1.74,1.74,0,0,1-.08.42l-12.75,3.69c-3.72,1.09-7.45,2.13-11.25,2.91-1,.22-2.26-.64-3.4-1C221,218.87,221.59,217.58,222.55,217.24Zm24-46.88c.86-.67.65.39,1,.71-.42.07-.83.12-1.24.16A.69.69,0,0,1,246.52,170.36Zm-1.13,1c-.29,0-.57.08-.86.12C244.93,170.7,245.14,170.93,245.39,171.36ZM230.75,15.87c1.56,6.31-2.22,6.17-6,6C226.56,20.1,228.35,18.28,230.75,15.87Zm-2-1.41a9.3,9.3,0,0,1-1.12,1.14C227.74,14.84,228.11,14.29,228.74,14.46Zm-3.87,1.28c-.32-1.79,1.58-1.31,2.27-.45,0,.19,0,.42,0,.69a9.8,9.8,0,0,1-3.39,1.72A4.72,4.72,0,0,0,225.82,16ZM189.52,205.06a8.92,8.92,0,0,1,1.42.3,7.26,7.26,0,0,0-1-.47l2.14-.86.2.12a.71.71,0,0,1,0-.21l1.48-.61a.51.51,0,0,0,0,.17.52.52,0,0,1-.46.24l.74,1.07a.73.73,0,0,0,.31.44l0,0v0c.17.07.39,0,.69-.36a1.12,1.12,0,0,1,.22.31c-.26.1-.52.18-.77.26l-.13-.17a.93.93,0,0,0,.08.2L181.4,210l-.51-.12a.76.76,0,0,0-.24.38l-6.66,2.3-.14-.28-.08.36-.61.2a5,5,0,0,1-.57-.92l1.67-.67a1,1,0,0,0,.5,0l-.2-.14Zm-2.84-28.85c.32.36.65.7,1,1L182,182.92l-1.34-1.33C180.29,177,183.79,177,186.68,176.21Zm-23.59,12.33c1.95-5.52,8.14-7.86,12.62-4.78Zm9.36,24.55-.21.08c-.13-.32-.25-.63-.36-.95l.59-.24A4.14,4.14,0,0,1,172.45,213.09Zm8.46,9.12.73-.44c-.37-.15-.66.15-.91.5q-4.65,1.51-9.28,3c-.21-.63-.4-1.26-.6-1.9L195,216.05c.14.45.28.91.43,1.37Zm33.2-36-.12,0-.79-.68a1.79,1.79,0,0,1-1,.3,19.47,19.47,0,0,1,2.17-1.57,2.2,2.2,0,0,1,.61,1.22l-1.1-.48C214.59,186.12,212.36,184.2,214.11,186.18Zm.75-2.29.19-.1,0,.27A2.07,2.07,0,0,0,214.86,183.89Zm.27.19.41-.25a11.66,11.66,0,0,1,.89,1.11A10.1,10.1,0,0,1,215.13,184.08Zm2-.08-1.2-.42,1.13-.67.25.84Zm-.38-1.09.28-.13,0,.1A1.63,1.63,0,0,1,216.75,182.91Zm-8.26-4.11a1.63,1.63,0,0,1,.11.17l-.22-.14ZM201,182c.41-.46,1.18-.18,1.78.46-.1-1.72.67-.38-.18-1.75l.82-.27,2.47-.8a2.49,2.49,0,0,0,.6.19l-.23.31.6-.26a3.8,3.8,0,0,0,1.24-.1l-.28-.29.86-.37a.82.82,0,0,0,1.07.37c.17,0-.21-.48-.4-1l1.29-.41a.37.37,0,0,0,.37.24l-.16-.32,15-4.87a.93.93,0,0,0-.07.65c.26.43.68,0,.84.08a.62.62,0,0,1-.25-.9c3.17-1,6.35-2,9.52-3.1a8.74,8.74,0,0,0,4.28-2.81l2.09.44c-1.34,1.06-2.72,1.82-2.37,3.54l.51.34c0-.5-.36-.73-.19-1.12.57-.54.91,0,1.27.48l-.14.32.39,0a.71.71,0,0,1,.09.07c-.66,0-.73.73-1.33,1.06a4.33,4.33,0,0,1,1.61-.23A5.55,5.55,0,0,0,238,176a8.78,8.78,0,0,0-2-.69c-.27,2,.58,1.3,1.77,1.88,0,.21,0,.41-.06.63a2.65,2.65,0,0,1-1.24,2c-3.14,1-6.3,2-9.43,3.08a1.64,1.64,0,0,1-1.06-1.34l-1.25,2.08c-1,.32-1.95.65-2.94,1-.05-.7-.4-1.32.81-1.69l-1.51.45.39,1.34a.76.76,0,0,0-.18.06s0,0,0-.05c0-1.47-.89-1.15-1.93-1a1.4,1.4,0,0,0-1.77-.47l-.09.12a1.85,1.85,0,0,1-.38-.53,1.28,1.28,0,0,0,.71-.45l-.73.43a.7.7,0,0,0-.06-.09c.25-.13.53-.23.79-.34l0,0c1.8-.75,3.62-1.36,5.4-2l.48.21a2.24,2.24,0,0,0-.44-.23,27.63,27.63,0,0,0,6.58-3c-.12-.47-.26-.93-.38-1.41-3.35.94-6.71,1.88-10.05,2.8l-2.51-.53,1.3.87L201,184a1.89,1.89,0,0,1,1.4-1.09C202,182.38,201.2,182.61,201,182Zm-.56,20.75.24.6a3,3,0,0,0-.36.12A5.92,5.92,0,0,1,200.46,202.75ZM200,184.27l-.12,0v-.12Zm-.86.24c-.35.1-.7.19-1,.3-.08-.17-.14-.36-.21-.53A4.39,4.39,0,0,1,199.14,184.51Zm-.59,16.9.09.66A1,1,0,0,1,199,202h0a1.24,1.24,0,0,1-.37-.56c.27-.12.53-.23.8-.33l.41,0c.13.35.26.7.41,1a5.68,5.68,0,0,1-.81,0,3.33,3.33,0,0,1,.24,1.57l-1.73.61c-.58-.66-1.16-1.3-1.73-1.93Zm2.59-28.71-1.28-1.11a1.66,1.66,0,0,1-1.46.23,6.34,6.34,0,0,1,2.49-1.41l.16,0a2.07,2.07,0,0,1,.59,1.19l-1.1-.5C201.31,172.31,198.75,170.1,201.14,172.7Zm4.59-13.95.68.67c-1.28-.09-1.92,1.28-3.67.28Zm-27.38,8.68.24.13a1.08,1.08,0,0,1,.42-.33l.08,0c.41-.11.74.32.87,1.26l.72-1.76,2.73-.86c2.52-.79,5.07-1.58,7.59-2.39.52,1,1.23,1.65,2.51.28l.51-1.23h0l4.26-1.37c.34.61.36,1.75,1.25.72a4.78,4.78,0,0,1-.8-.87l3.32-1.06c.09.39.18.75.27,1.06l4.85.09c-.12-.06-.13-.52-.24-1a12.91,12.91,0,0,0,2,1.07,391,391,0,0,1-43.59,10.42Zm-6-75.75C162,97,150.78,97.55,139.53,98.22,150,93.56,161.27,93.25,172.36,91.68ZM127.8,273.24a2.48,2.48,0,0,0-.38-.22l1-.34A.72.72,0,0,1,127.8,273.24Zm3.78-231.17a4,4,0,0,0,1.28.85c-.12.3-.25.59-.36.89C131.84,43.43,130.71,43.63,131.58,42.07Zm.62,2.46c-.6,1.46-1.11,2.72-1.92,2.94s-1.72.41-2.6.56L127,45.67C129.15,45,130.21,43.58,132.2,44.53Zm-4.57,3.52-.72.11-.14-.28C127,47.32,127.36,47.8,127.63,48.05Zm-2.21-.29c.92-.74,1-.16,1.21.45-.55.08-1.12.16-1.68.21A1.1,1.1,0,0,1,125.42,47.76Zm-.28,226.84a5.42,5.42,0,0,1,.49.46,4.73,4.73,0,0,0-1.31,0A2.37,2.37,0,0,0,125.14,274.6Zm-8.72,3.08c.28-.19.65-.4,1-.61l.13.28Zm7.2-3.26a2.49,2.49,0,0,1-2,.77ZM119,276.31c.41-.19.86-.39,1.34-.59,0,.2.22.33.82.3.2-.54,1.87-.56,3.09-1l-.39.59-5.38,1.46A2,2,0,0,0,119,276.31Zm-3.69-228.6c1.19-1.16,1.77.76,2.58,1.31-.79,0-1.59-.09-2.39-.14C115.39,48.45,115.17,48.14,115.34,47.71ZM84.52,160.6c1.44,3.33-.45,4.72-2.86,5.28-6.45,1.49-13,2.72-19.46,4.06l-.36-1.75Zm-9.3-19.12c-15.75,6.35-31.79,11.69-48.51,14.82C41.69,147.44,58.51,144.64,75.22,141.48Z" style="fill:#efad13"/><path d="M198.25,174.52c.56,1.16.24,0,0,0Z" style="fill:#efad13"/><path d="M242.89,163.76c.56,1.16.25.05,0,0Z" style="fill:#efad13"/><path d="M217.72,169.6l-1.1-1c.59.65.18,1.11.1,1.8Z" style="fill:#efad13"/><path d="M219,197.14l-1.77-.45c-.67.52.86,1.56-.66,1.52h1.1a.56.56,0,0,1-.18-.61Z" style="fill:#efad13"/><path d="M222.2,193.66a2.74,2.74,0,0,1-.55-.16l.22.45A1,1,0,0,1,222.2,193.66Z" style="fill:#efad13"/><path d="M232.62,177.74l0,.34.11-.16.66,1.46a1.08,1.08,0,0,1,1.64.32,13.5,13.5,0,0,0-1.15-1.56l1.1-.45c-.65-.43-1-.19-1.28.23a5.81,5.81,0,0,0-.59-.62,2.3,2.3,0,0,0,.25-.44c-.25-.43-1.7-1.15-1.84.22l.76-.12Zm0-.84v0s0,0,0,0Z" style="fill:#efad13"/><path d="M251.71,167.54c.51.07.94-.13.84-1l-.09-.3Z" style="fill:#efad13"/><path d="M251.63,167.66l.08-.12-.13,0Z" style="fill:#efad13"/><path d="M228,216.21a6.3,6.3,0,0,0-.48-.6A1,1,0,0,0,228,216.21Z" style="fill:#efad13"/><path d="M228.12,217.44l1.53,1c.25-.08.23-1.56,1-1.3,0-1.05-1.74-.44-2.63-1C228.3,216.63,228.44,217.05,228.12,217.44Z" style="fill:#efad13"/><path d="M241,211.68l.13,0,0-.13Z" style="fill:#efad13"/><path d="M240.25,213.69c-.23.13-.38.38-.37.88A.89.89,0,0,0,240.25,213.69Z" style="fill:#efad13"/><polygon points="251.38 187.17 252.14 186.94 250.96 186.64 251.38 187.17" style="fill:#efad13"/><path d="M243.13,212.09a.74.74,0,0,0,.47.12Z" style="fill:#efad13"/><path d="M243.6,212.21l.71.19C243.16,210.81,244.09,212.14,243.6,212.21Z" style="fill:#efad13"/><path d="M191,205.36l.71.33A2.7,2.7,0,0,0,191,205.36Z" style="fill:#efad13"/><polygon points="211.63 158.6 210.79 157.25 210.58 159.47 211.63 158.6" style="fill:#efad13"/><path d="M224.72,181.08l-.95-.42c.85.6.47,1.59.07,2.58C226,183.92,223.79,181.63,224.72,181.08Z" style="fill:#efad13"/><path d="M233.22,179.48l-.22.07C232.91,179.78,233,179.66,233.22,179.48Z" style="fill:#efad13"/><path d="M233.22,179.48l.17,0,0-.05Z" style="fill:#efad13"/><polygon points="210.67 168.21 210.3 169.14 212.84 168.87 210.67 168.21" style="fill:#efad13"/><path d="M199,202h0a.8.8,0,0,0,.43.17A.41.41,0,0,0,199,202Z" style="fill:#efad13"/><path d="M198.63,202.07l-.08,0,.15.49Z" style="fill:#efad13"/><path d="M226,181.61l.35-.59-.28-.18A2.12,2.12,0,0,0,226,181.61Z" style="fill:#efad13"/><polygon points="242.93 149.73 242.09 148.4 242.65 149.55 241.99 149.5 242.93 149.73" style="fill:#efad13"/><polygon points="236.69 172.66 234.79 171.38 234.66 171.68 236.57 172.96 236.69 172.66" style="fill:#efad13"/><path d="M213.77,168.32l.28.18a2.4,2.4,0,0,1-.23-.21Z" style="fill:#efad13"/><path d="M250.21,185.63l.06,0-.07,0h0Z" style="fill:#efad13"/><path d="M253,185.54l.1.1v-4.29a1.1,1.1,0,0,1-.54-.86l-1.37,2.21c.39.59.68.81,1,.88-.87.13-1.46.56-1.1,1.78-.62.21-.59-.12-.6.29-.06,0-.1,0-.14,0l.12.09c0,.08,0,.18,0,.28l-.17-.39h0a1.25,1.25,0,0,1-.54-.37,3.54,3.54,0,0,0,1.26,2l-.5-1.15a3.77,3.77,0,0,0,.73.13l1.23.81a1.19,1.19,0,0,1,0-1A2.2,2.2,0,0,0,253,185.54Z" style="fill:#efad13"/><path d="M240,185.87l-.84,1.18A1.31,1.31,0,0,0,240,185.87Z" style="fill:#efad13"/><path d="M79.48,46.89l-1.78-1.6c1,1.05.31,1.79.21,2.9Z" style="fill:#efad13"/><polygon points="84.91 48.94 83.12 47.35 82.99 47.67 84.91 48.94" style="fill:#efad13"/><path d="M92.65,52.16a1.82,1.82,0,0,0-.23,1.41c.42.67,1.07-.07,1.34.1C92.12,52.58,94.77,51.22,92.65,52.16Z" style="fill:#efad13"/><path d="M74.62,60.64,76,59.82C75.4,59.63,75,60.12,74.62,60.64Z" style="fill:#efad13"/><path d="M74.62,60.64l-1.43.87C73.77,61.9,74.18,61.25,74.62,60.64Z" style="fill:#efad13"/><path d="M137.42,39.85a2.18,2.18,0,0,0-.14-1.09C137,39.53,137.1,39.77,137.42,39.85Z" style="fill:#efad13"/><path d="M152.78,31.47l-4.21-1.63c.83.55,1.22,5.53,3.71,2.86Z" style="fill:#efad13"/><path d="M158,27.14c-.19-2.09-2-.17-3.11-.91.42.68-.38.93-.36,1.72Z" style="fill:#efad13"/><path d="M161.06,30l4.84.09c-.27-.18.07-2.7-2-2.88l1.23,1.22c-1.34-.11-2,1.43-3.89.15-.31-1.77-2.67-4.53-.79-4.85l-3.1-.11C160.09,23.81,160.48,28,161.06,30Z" style="fill:#efad13"/><path d="M158.27,30.82c-.54-.36-2-2.87-2-1C157.55,29.17,157,32.31,158.27,30.82Z" style="fill:#efad13"/><path d="M126.8,39.28c.09-1.91,1.35.11,2.27-.45l-2.6-2.14C126.78,38.48,124.49,38.12,126.8,39.28Z" style="fill:#efad13"/><path d="M163.65,26.18c-.67-.06-1.41-2.51-1.62-.3C162.44,26.56,162.85,26.44,163.65,26.18Z" style="fill:#efad13"/><polygon points="170.4 27.55 169.56 26.2 169.35 28.42 170.4 27.55" style="fill:#efad13"/><path d="M116,42.67c1.2-.38,1.35.12,1-1.67C115.72,40.9,115.47,41.5,116,42.67Z" style="fill:#efad13"/><path d="M152.07,35.36c.55.38-.09,1.11-.07,1.91l.81.55C152.52,36.84,153.56,36,152.07,35.36Z" style="fill:#efad13"/><path d="M123.89,35.37c.88,2.15-5.57,2.55-.91,5.66.35-1.73.78-1.05-.75-2.46l3.33-1.31Z" style="fill:#efad13"/><path d="M172.21,20.17c1.16-2,1.66,1.91,2.25-1.23l-1.5-.62.28.19-2,.62Z" style="fill:#efad13"/><path d="M138.73,37.44l1-2.48c-.76,1.85-1.75,0-3.09-.1,1.64,1.09-1.06.86.72,1.65C138,35.77,138.55,36.14,138.73,37.44Z" style="fill:#efad13"/><polygon points="201.7 18.69 200.86 17.35 201.42 18.51 200.76 18.46 201.7 18.69" style="fill:#efad13"/><polygon points="249.05 7.15 247.02 6.17 246.89 6.48 249.05 7.15" style="fill:#efad13"/><path d="M204.94,13.41a.78.78,0,0,0,.46.48C205.3,13.64,205.18,13.43,204.94,13.41Z" style="fill:#efad13"/><path d="M206.33,15.12c.67-1-.29-.93-.93-1.23C205.59,14.34,205.72,15,206.33,15.12Z" style="fill:#efad13"/><path d="M251.82,0c-.06,2.7-3.24-.6-5.09.52.33,2.59-2.3-.35-2.64,2.16l1.11.75c.08-1.91,2.81-.09,4.56-.09C249.39,0,252.45,3.57,251.82,0Z" style="fill:#efad13"/><path d="M213.43,9.66c-.67-.06-1.77-.79-2.15.14C212.12,11.14,212.48,9.42,213.43,9.66Z" style="fill:#efad13"/><path d="M212.4,11.33l1.79,2.37C214.14,13.18,213.81,10.67,212.4,11.33Z" style="fill:#efad13"/><path d="M214.21,13.71h0C214.21,13.81,214.21,13.86,214.21,13.71Z" style="fill:#efad13"/><path d="M235.55,14.61l0,.44a.6.6,0,0,0,0-.45h0Z" style="fill:#efad13"/><path d="M219.77,10.36l-2.26,1.24a10.91,10.91,0,0,1,2.51-.38Z" style="fill:#efad13"/><path d="M89.64,284l-2.58.11c.69.25,1.39.49,2.13.69l-.87.29,2,1a2.09,2.09,0,0,1,1.2-.84l.2,0-.09-.06c1.38-.42,3-.2,1.49-1.46l1.3.71-.34-1.91c-1.3.06-3.3,2.16-3.8.45-.32.4.58.46.58,1.23l-.57.19Z" style="fill:#efad13"/><polygon points="130.56 285.13 129.35 285.48 129.36 286.24 130.56 285.13" style="fill:#efad13"/><path d="M127.23,288.73l1.67-.36-1.21-.43C127.15,288.09,127.36,288.51,127.23,288.73Z" style="fill:#efad13"/><path d="M127.23,288.73l-.58.12C127,288.9,127.17,288.84,127.23,288.73Z" style="fill:#efad13"/><path d="M135.87,283.18a2.4,2.4,0,0,0,.77.16A1.27,1.27,0,0,0,135.87,283.18Z" style="fill:#efad13"/><path d="M145.61,280a3.1,3.1,0,0,0,1-.18Z" style="fill:#efad13"/><path d="M138.58,286.42l1,.34-1-1.11C138,286,137.94,286.45,138.58,286.42Z" style="fill:#efad13"/><polygon points="148.92 279.35 148.21 280.63 149.02 280.41 148.92 279.35" style="fill:#efad13"/><polygon points="154.3 276.15 153.25 276.29 152.78 276.88 154.3 276.15" style="fill:#efad13"/><path d="M151.64,283.36l-2.67-.17c-1.12.62,1.07,1.4-1.27,1.59l1.7-.17a.35.35,0,0,1-.17-.56Z" style="fill:#efad13"/><path d="M157.26,279.46c.63,0,1.36,0,2,.05A3.17,3.17,0,0,0,157.26,279.46Z" style="fill:#efad13"/><path d="M159.93,279.65c-.25,0-.47-.09-.68-.14" style="fill:none;stroke:#efad13;stroke-linecap:round;stroke-linejoin:round;stroke-width:0px"/><path d="M156.44,279.39l-.57-.91C155.64,279.05,155.92,279.29,156.44,279.39Z" style="fill:#efad13"/><path d="M156.69,279.79a2,2,0,0,1,.57-.33,4,4,0,0,1-.82-.07Z" style="fill:#efad13"/><path d="M88,278.19l-1.5.66C87,279,87.47,278.6,88,278.19Z" style="fill:#efad13"/><path d="M89.37,277.57a1.93,1.93,0,0,0-1.4.62Z" style="fill:#efad13"/><path d="M169.22,272.72l-.74-1c-.24.69-1.29.83-1.52,1.51C167.61,273.94,168.41,273,169.22,272.72Z" style="fill:#efad13"/><path d="M168.66,273.8a3,3,0,0,0,1,.72C169.54,274.13,169.42,273.77,168.66,273.8Z" style="fill:#efad13"/><path d="M169.63,274.52a1.2,1.2,0,0,0,.35.76l-.44.1c0-.43,0-.9-1-.33a6.2,6.2,0,0,0-.57.67l-.19,0,.18,0a.32.32,0,0,0,0,.39l2.1-.28a.36.36,0,0,1-.45-.23,3.74,3.74,0,0,0,2.08-.51C170.77,273.79,170.58,274.91,169.63,274.52Z" style="fill:#efad13"/><path d="M181.43,266.83l1.08,2.15c1.92-1.61,3.15-.42,5.08-1.27.07-.48-1.47-1.28-3.25-.63l.56-1.08C182.89,267.34,182.79,265.51,181.43,266.83Z" style="fill:#efad13"/><path d="M180.12,272a2.67,2.67,0,0,1,1.87.4L180.27,271C180.35,271.29,180.69,271.66,180.12,272Z" style="fill:#efad13"/><path d="M179.71,273.89c.72.26,2.08-1.05,3-.22.66-.36-.69-.48-1.8-.36l.62-.34-.9-.07-.16.47C179.88,273.47,179.49,273.64,179.71,273.89Z" style="fill:#efad13"/><path d="M192.42,273c-2.83-.75-5.46,2.92-8.38,1.13-3.15.41-1.11,2.15,0,2.78.88-.71,3.38-1.1,2.72-1.84,3.07.06,1.4,1.76,4.07,1.93l-.91-1.58,2.34-1C190.42,274.31,192,273.58,192.42,273Z" style="fill:#efad13"/><path d="M145,285.65l.89-.71L144,285C143.88,285.51,144.68,285.28,145,285.65Z" style="fill:#efad13"/><path d="M193.05,266.6c-.06.15-.12.25-.18.38-.55-.15-1.11-.34-1-1.08-.41.91.15,1.34.77,1.57a7.67,7.67,0,0,0-1.16,2.66l4.66-1.93C193.24,268.71,195.32,266.89,193.05,266.6Z" style="fill:#efad13"/><path d="M203.2,259.94c-.12.15,0,.07.22-.06Z" style="fill:#efad13"/><path d="M203.57,259.81l-.15.07.17,0Z" style="fill:#efad13"/><path d="M162.86,280.68c2.58-.11,2.89-1.28,4.25-1.82-2.69-1.71-4.57-3.64-8.22-4.16.24.09.73.26.82.55l-4.85.59c1.22.42,3.09.82,4,1.65l-.81.22,2.68,1c.08-.49.64-.8,1.44-1a1,1,0,0,1,.13.49.83.83,0,0,1-.47.19l.59.58a.36.36,0,0,0,.25.24l0,0v0c.15,0,.38,0,.72-.29C164.78,279.83,161.46,279.68,162.86,280.68Z" style="fill:#efad13"/><path d="M163,279.5l-.36-.35A.55.55,0,0,0,163,279.5Z" style="fill:#efad13"/><path d="M169.56,277.21c-.12-.91-1-.48-1.71-.44.25.22,0,.86,0,1.37C169.08,277.8,168.42,276.3,169.56,277.21Z" style="fill:#efad13"/><path d="M167.45,276.71a.87.87,0,0,0,.4.06A.43.43,0,0,0,167.45,276.71Z" style="fill:#efad13"/><path d="M167.13,276.35v.45l.32-.09A.53.53,0,0,1,167.13,276.35Z" style="fill:#efad13"/><path d="M167.14,277.12v-.32l-.08,0Z" style="fill:#efad13"/><path d="M172.22,275.85a2.11,2.11,0,0,0-.17.22" style="fill:none;stroke:#efad13;stroke-linecap:round;stroke-linejoin:round;stroke-width:0px"/><path d="M172.05,276.07c-.64.61-2.41.5-1.67,1.68C171.09,277.54,171.61,276.68,172.05,276.07Z" style="fill:#efad13"/><path d="M193.46,255.55l.06-1.26-1.45.26.41.65c-.16.2-.4.11-.55.31Z" style="fill:#efad13"/><path d="M177,275.74l-.59-1.23c-.72.51-.07.49-.15,1Z" style="fill:#efad13"/><polygon points="195.06 254.31 193.52 253.52 194.33 254.06 195.06 254.31" style="fill:#efad13"/><polygon points="147.02 277.7 148.3 276.87 147.25 277.01 147.02 277.7" style="fill:#efad13"/><polygon points="231.06 245.02 229.36 245.19 230.9 245.22 231.06 245.02" style="fill:#efad13"/><path d="M196.28,261.37a1.08,1.08,0,0,0-.16.48l.41-.39Z" style="fill:#efad13"/><path d="M198.82,263.28l1.44-.25c-1.3-.46-4.22-.09-4.14-1.18l-2.15,2c1.22,1.19,1.78.14,3.85.6C197.77,264.07,198,263.68,198.82,263.28Z" style="fill:#efad13"/><path d="M195.6,265.72l.93.53-.09,0,.82.54.3-.15a3.3,3.3,0,0,0,1.94-.33l-.5-.4.35-.18-.46.09a2.88,2.88,0,0,1-1-1.24C197.81,265.11,196.58,265.59,195.6,265.72Z" style="fill:#efad13"/><path d="M197.86,264.48h0a.93.93,0,0,0,0,.13S197.88,264.52,197.86,264.48Z" style="fill:#efad13"/><polygon points="211.98 249.56 212.13 249.36 210.43 248.76 210.28 248.96 211.98 249.56" style="fill:#efad13"/><path d="M213.83,248.68a2.67,2.67,0,0,0-1.38-.48Z" style="fill:#efad13"/><path d="M214.4,248.88l-.57-.2c.52.32,1,.58,2.66-.08,1-.91-1.06-.62-1.54-.79C214.63,248.2,215,248.58,214.4,248.88Z" style="fill:#efad13"/><polygon points="241.67 252.83 239.25 252.74 240.47 253.93 241.67 252.83" style="fill:#efad13"/><polygon points="212.66 257.7 210.94 257.1 211.04 258.15 212.66 257.7" style="fill:#efad13"/><polygon points="209.56 261.34 208.18 261.73 210.12 262.41 209.56 261.34" style="fill:#efad13"/><polygon points="209.13 260.53 209.56 261.34 209.79 261.27 209.13 260.53" style="fill:#efad13"/><polygon points="205.52 268.94 203.75 269.59 204.08 269.96 205.52 268.94" style="fill:#efad13"/><path d="M207.29,268.29c.57.46,1.05-.14,1.53-.74l-2.26-.27C206.39,267.47,206.4,268.24,207.29,268.29Z" style="fill:#efad13"/><path d="M220,259.78l-.67-1.51c-.48-.16.09,1.06-1.53.74-.81-.54-1.72-2.14-3.41-1.2.9.83,3-.23,2.6,1.43A23.71,23.71,0,0,1,220,259.78Z" style="fill:#efad13"/><path d="M213.33,266.6l1.88,1.16.63-.79C214.15,267.9,214.78,266.34,213.33,266.6Z" style="fill:#efad13"/><path d="M219.17,262h.06Z" style="fill:#efad13"/><path d="M230.76,256.92l.49.17-1.45,1c-1.61.46.71-1.28-1.3-.71-.07,1.25,1.95.68,1.64,1.85-3.14,1.19-2.45-1.62-4.94-.46,1.29-.05.83,1.31.11,1.82.54-1.85-1.62.45-2.76-.46a1.36,1.36,0,0,0-.46.36c-1.23.09-2.37.37-2.09,1.29-.63.18-.58,0-.64.23a.53.53,0,0,1-.13,0l.12,0c0,.05,0,.1,0,.18l-.12-.23a.88.88,0,0,1-.49-.18,1.51,1.51,0,0,0,1,1.12l-.35-.66a4.14,4.14,0,0,0,.7,0l1.09.38a.49.49,0,0,1,.1-.62,7.81,7.81,0,0,0,1.44-.91c.45.2,1,.44.88.86.22-1.39,2.06-1,3.12-1.45l.2.07a.89.89,0,0,1,0-.14,1,1,0,0,0,.56-.95l2,.68c1.53-.74,1.43-2.55,4-2.66Z" style="fill:#efad13"/><path d="M219.89,266.75l.49.79C220.68,267,220.34,266.82,219.89,266.75Z" style="fill:#efad13"/><path d="M221.56,264.9c-.82-.55-3.22.9-2.81,1.56a2.62,2.62,0,0,0,1.14.29l-.33-.52a2.45,2.45,0,0,1,2.1-.28C221.56,265.66,221.88,265.27,221.56,264.9Z" style="fill:#efad13"/><path d="M227.51,262.91l.09.29-2.42-.08.65.73c-.8.23-1.45.25-1.78-.12.66.75-2.74,1.08-1.34,2.07l-.09-.27,4.92-1.08c-.64,0-.42-.65-.66-.74.81-.23,1.3,0,1.86-.37Z" style="fill:#efad13"/><path d="M232.17,262.62c-.77-.11-2-1.4-3.13-1.21l.67,1.67c.08-.29.53-.56.47-.76C230.87,262,231.61,262.63,232.17,262.62Z" style="fill:#efad13"/><path d="M232.76,262.21a.69.69,0,0,1-.43.39A.51.51,0,0,0,232.76,262.21Z" style="fill:#efad13"/><path d="M229.71,263.08a.34.34,0,0,0,.16.4Z" style="fill:#efad13"/><path d="M205.8,264.72c-1-1.11-3.16-1.11-4.87-1.71-2.26.47,1.38,1,.19,2.1.41.65,4.14,1.45,6.4,1l-1.06-.63,1.85-1.53C207.23,264.27,205.73,264,205.8,264.72Z" style="fill:#efad13"/><path d="M209.26,263.13l-.95.79A1.38,1.38,0,0,0,209.26,263.13Z" style="fill:#efad13"/><path d="M247,259.3c2.66-.6,1-2.45.93-3.49l-2.58.87C247.82,257.05,244.69,259,247,259.3Z" style="fill:#efad13"/><path d="M253.06,254.94l-1-.47c-.15.2,1.15.91-.06,1.25,0,0,.51,0,1.05,0Z" style="fill:#efad13"/><path d="M246.91,241.45s2.24-1.25,2-2.11C248.59,240.51,246.32,240.23,246.91,241.45Z" style="fill:#efad13"/></g></g></svg>